<svg xmlns="http://www.w3.org/2000/svg" xmlns:xlink="http://www.w3.org/1999/xlink"><defs><style>
    .sprite-symbol-usage {display: none;}
    .sprite-symbol-usage:target {display: inline;}
  </style><symbol viewBox="0 0 200 187" id="arrow_next_multi_slider"><path d="M95.4 10.1 85.5 20l36.8 36.8 36.9 36.9-36.6 35.9C102.5 149.3 86 165.9 86 166.5c0 1 12.5 13.6 17.7 17.9l2.3 1.9 46.2-45.8c25.5-25.3 46.5-46.3 46.7-46.8.4-1-54.6-56.4-79-79.7L105.4.1l-10 10z" /><path d="M10.4 11.1.5 21l36.8 36.8 36.9 36.9-36.6 35.9C17.5 150.3 1 166.9 1 167.5c0 1 12.5 13.6 17.7 17.9l2.3 1.9 46.2-45.8c25.5-25.3 46.5-46.3 46.7-46.8.4-1-54.6-56.4-79-79.7L20.4 1.1l-10 10z" /></symbol><symbol fill="none" viewBox="0 0 14 14" id="arrow_next_single_slider"><path d="M.94 7.758h9.242L5.939 12 7 13.06 13.06 7 7 .94 5.94 2l4.242 4.242H.939v1.516Z" fill="#fff" /></symbol><symbol viewBox="0 0 200 187" id="arrow_prev_multi_slider"><path d="M132.3 46C106.8 71.3 86 92.3 86 92.8s21 21.7 46.6 47.2l46.7 46.2 10.1-10.1 10.1-10.1-36.8-36.8-36.9-36.9 36.6-35.9C182.5 36.7 199 20 199 19.4 199 18.2 180.4 0 179.2 0c-.4.1-21.5 20.7-46.9 46z" /><path d="M47.3 47C21.8 72.3 1 93.3 1 93.8s21 21.7 46.6 47.2l46.7 46.2 10.1-10.1 10.1-10.1-36.8-36.8-36.9-36.9 36.6-35.9C97.5 37.7 114 21 114 20.4 114 19.2 95.4 1 94.2 1c-.4.1-21.5 20.7-46.9 46z" /></symbol><symbol fill="none" viewBox="0 0 14 14" id="arrow_prev_single_slider"><path d="M13.06 7.758H3.819L8.061 12 7 13.06.94 7 7 .94 8.06 2 3.819 6.242h9.243v1.516Z" fill="#fff" /></symbol><symbol viewBox="0 0 37 39" id="logo"><path d="M8.781 29.506h7.61v-8.092h7.772v8.092h12.114v8.933H.907V15.346H8.78v14.16ZM.122 4.796c0-2.462 1.95-4.273 4.41-4.273 2.416 0 4.412 1.811 4.412 4.273 0 2.415-1.996 4.225-4.412 4.225-2.46 0-4.41-1.81-4.41-4.225Z" /></symbol></defs><use id="arrow_next_multi_slider-usage" xlink:href="#arrow_next_multi_slider" class="sprite-symbol-usage" /><use id="arrow_next_single_slider-usage" xlink:href="#arrow_next_single_slider" class="sprite-symbol-usage" /><use id="arrow_prev_multi_slider-usage" xlink:href="#arrow_prev_multi_slider" class="sprite-symbol-usage" /><use id="arrow_prev_single_slider-usage" xlink:href="#arrow_prev_single_slider" class="sprite-symbol-usage" /><use id="logo-usage" xlink:href="#logo" class="sprite-symbol-usage" /></svg>